
<svg xmlns="http://www.w3.org/2000/svg" width="1440" height="1024" viewBox="0 0 1440 1024" xmlns:xlink="http://www.w3.org/1999/xlink">

  <defs>

    <rect id="path-1" width="831" height="253" rx="8"/>

    <rect id="path-3" width="174" height="42" rx="4"/>

    <rect id="path-5" width="549" height="253"/>

    <rect id="path-7" width="176" height="36" rx="4"/>

    <rect id="path-9" width="176" height="36" rx="4"/>

  </defs>

  <g id="learn_page" fill="none" fill-rule="evenodd">

    <rect id="background" width="1440" height="1024" fill="#F9F9F9"/>

    <g id="@@../shared/side_nav/sidenav_desktop_explore_active.svg">

      <rect id="Rectangle" width="100" height="850" fill="#FFFFFF"/>

      <rect id="Rectangle-2" width="100" height="168" y="160" fill="#996192"/>

      <text id="Search" fill="#996192" font-family="NotoSans, Noto Sans" font-size="14">

        <tspan x="26" y="429">Search</tspan>

      </text>

      <path id="Shape" fill="#996192" d="M56.794 395.579H55.1l-.6-.58a13.871 13.871 0 0 0 3.365-9.066c0-7.695-6.238-13.933-13.933-13.933C36.238 372 30 378.238 30 385.933c0 7.695 6.238 13.933 13.933 13.933 3.45 0 6.623-1.265 9.067-3.366l.579.6v1.694l10.717 10.696 3.194-3.194-10.696-10.717zm-12.861 0a9.633 9.633 0 0 1-9.646-9.646 9.633 9.633 0 0 1 9.646-9.646 9.633 9.633 0 0 1 9.646 9.646 9.633 9.633 0 0 1-9.646 9.646z"/>

      <text id="Wonder" fill="#FFFFFF" font-family="NotoSans, Noto Sans" font-size="14">

        <tspan x="25" y="272">Wonder</tspan>

      </text>

      <path id="Shape" fill="#FFFFFF" d="M50 230.8c-1.22 0-2.2.98-2.2 2.2 0 1.22.98 2.2 2.2 2.2 1.22 0 2.2-.98 2.2-2.2 0-1.22-.98-2.2-2.2-2.2zm0-17.8c-11.04 0-20 8.96-20 20s8.96 20 20 20 20-8.96 20-20-8.96-20-20-20zm4.38 24.38L38 245l7.62-16.38L62 221l-7.62 16.38z"/>

      <text id="Learn" fill="#996192" font-family="NotoSans, Noto Sans" font-size="14">

        <tspan x="31" y="109">Learn</tspan>

      </text>

      <polygon id="Shape" fill="#4AB649" points="46 90 46 78 54 78 54 90 64 90 64 74 70 74 50 56 30 74 36 74 36 90"/>

    </g>

    <g id="@@../shared/exercise/exercise_components.svg" transform="translate(189 77)">

      <rect id="Rectangle" width="1156" height="742" fill="#FFFFFF"/>

      <text id="Points:" fill="#3A3A3A" transform="translate(736 499)" font-size="14" font-family="NotoSans-Bold, Noto Sans" font-weight="bold">

        <tspan x="0" y="15">Points:</tspan>

      </text>

      <text id="US-History" fill="#3A3A3A" transform="translate(543 26)" font-size="20" font-family="NotoSans-Bold, Noto Sans" font-weight="bold">

        <tspan x="0" y="21">US History</tspan>

      </text>

      <text id="The-Declaration-of-Independence" fill="#3A3A3A" transform="translate(498 56)" font-size="14" font-family="NotoSans, Noto Sans">

        <tspan x="0" y="15">The Declaration of Independence</tspan>

      </text>

      <g id="Rectangle-2-Clipped" transform="translate(141 103)">

        <mask id="mask-2" fill="white">

          <use xlink:href="#path-1"/>

        </mask>

        <g id="Rectangle-2" stroke="#E2D1E0" stroke-width="2" mask="url(#mask-2)">

          <rect id="path-1" width="831" height="253" rx="8"/>

        </g>

      </g>

      <text id="We-hold-these-truths-to-be" fill="#3A3A3A" transform="translate(186 118)" font-size="18" font-family="NotoSans, Noto Sans">

        <tspan x="0" y="19">We hold these truths to be</tspan>

      </text>

      <text id="self-evident" fill="#3A3A3A" transform="translate(415 118)" font-size="18" font-family="NotoSans-Italic, Noto Sans" font-style="italic">

        <tspan x=".14" y="19">self-evident</tspan>

      </text>

      <text id="." fill="#3A3A3A" transform="translate(505 118)" font-size="18" font-family="NotoSans, Noto Sans">

        <tspan x=".729" y="19">.</tspan>

      </text>

      <text id="The-term" fill="#3A3A3A" transform="translate(186 142)" font-size="18" font-family="NotoSans, Noto Sans">

        <tspan x="0" y="19">The term</tspan>

      </text>

      <text id="self-evident" fill="#3A3A3A" transform="translate(267 142)" font-size="18" font-family="NotoSans-Italic, Noto Sans" font-style="italic">

        <tspan x=".554" y="19">self-evident</tspan>

      </text>

      <text id="means..." fill="#3A3A3A" transform="translate(362 142)" font-size="18" font-family="NotoSans, Noto Sans">

        <tspan x=".818" y="19">means...</tspan>

      </text>

      <rect id="Rectangle-13" width="25.533" height="22.198" x="184" y="224" fill="#D8D8D8" rx="8"/>

      <rect id="Rectangle-13" width="25.533" height="22.198" x="184" y="269" fill="#D8D8D8" rx="8"/>

      <rect id="Rectangle-13" width="25.533" height="22.198" x="184" y="315" fill="#D8D8D8" rx="8"/>

      <text id="shows-the-influence-of-philosophers-such-as-David-Hume." fill="#3A3A3A" transform="translate(222 224)" font-size="14" font-family="NotoSans, Noto Sans">

        <tspan x="0" y="15">shows the influence of philosophers such as David Hume.</tspan>

      </text>

      <text id="was-colonists-way-of-mocking-the-British-by-stating-the-obvious-nature-of-their-beliefs." fill="#3A3A3A" transform="translate(222 270)" font-size="14" font-family="NotoSans, Noto Sans">

        <tspan x="0" y="15">was colonists way of mocking the British by stating the obvious nature of their beliefs.</tspan>

      </text>

      <text id="shows-the-influence-of-the-Scientific-Revolution-on-the-authors-of-the-Declaration." fill="#3A3A3A" transform="translate(222 316)" font-size="14" font-family="NotoSans, Noto Sans">

        <tspan x="0" y="15">shows the influence of the Scientific Revolution on the authors of the Declaration.</tspan>

      </text>

      <text id="Select-all-that-apply." fill="#3A3A3A" transform="translate(186 192)" font-size="14" font-family="NotoSans-Bold, Noto Sans" font-weight="bold">

        <tspan x="0" y="15">Select all that apply.</tspan>

      </text>

      <g id="Group-3" transform="translate(798 370)">

        <g id="Rectangle-Clipped">

          <mask id="mask-4" fill="white">

            <use xlink:href="#path-3"/>

          </mask>

          <g id="Rectangle" fill="#996189" stroke="#979797" stroke-width="2" mask="url(#mask-4)">

            <rect id="path-3" width="174" height="42" rx="4"/>

          </g>

        </g>

        <text id="Check-Answer" fill="#FFFFFF" transform="translate(37 11)" font-size="14.4" font-family="NotoSans-Bold, Noto Sans" font-weight="bold">

          <tspan x=".389" y="15">Check Answer</tspan>

        </text>

      </g>

      <text id="Scratchpad" fill="#3A3A3A" transform="translate(140 420)" font-size="14" font-family="NotoSans-Bold, Noto Sans" font-weight="bold">

        <tspan x="0" y="15">Scratchpad</tspan>

      </text>

      <g id="Rectangle-3-Clipped" transform="translate(140 453)">

        <mask id="mask-6" fill="white">

          <use xlink:href="#path-5"/>

        </mask>

        <g id="Rectangle-3" stroke="#979797" stroke-width="2" mask="url(#mask-6)">

          <rect id="path-5" width="549" height="253"/>

        </g>

      </g>

      <g id="Egg-Points" transform="translate(730 542)">

        <g id="egg" transform="translate(3)">

          <g id="Layer_1">

            <g id="Group">

              <path id="Shape" fill="#E2D1E0" d="M16.2 37.5c-.6.1-1.3.1-2 .1C6.6 37.6.5 33.7.5 23.5S6.6.7 14.2.7c6.9 0 12.7 10.5 13.6 20.1L24.2 31l-8 6.5z"/>

              <path id="Shape" fill="#E0E1E0" d="M27.8 21c.1.9.1 1.8.1 2.7 0 9.3-5.1 13.3-11.7 14 0 0 4.1-4 6.5-7.4 2.4-3.5 5.1-9.3 5.1-9.3z"/>

              <circle id="Oval" cx="10.6" cy="14.5" r="1.3" fill="#A09F9F"/>

              <circle id="Oval" cx="17.8" cy="14.5" r="1.3" fill="#A09F9F"/>

              <path id="Shape" stroke="#A09F9F" d="M12.5 18.4s-.4 2.3 1.7 2.3 1.7-2.3 1.7-2.3"/>

            </g>

          </g>

        </g>

        <g id="egg" transform="translate(52)">

          <g id="Layer_1">

            <g id="Group">

              <path id="Shape" fill="#E2D1E0" d="M16.2 37.5c-.6.1-1.3.1-2 .1C6.6 37.6.5 33.7.5 23.5S6.6.7 14.2.7c6.9 0 12.7 10.5 13.6 20.1L24.2 31l-8 6.5z"/>

              <path id="Shape" fill="#E0E1E0" d="M27.8 21c.1.9.1 1.8.1 2.7 0 9.3-5.1 13.3-11.7 14 0 0 4.1-4 6.5-7.4 2.4-3.5 5.1-9.3 5.1-9.3z"/>

              <circle id="Oval" cx="10.6" cy="14.5" r="1.3" fill="#A09F9F"/>

              <circle id="Oval" cx="17.8" cy="14.5" r="1.3" fill="#A09F9F"/>

              <path id="Shape" stroke="#A09F9F" d="M12.5 18.4s-.4 2.3 1.7 2.3 1.7-2.3 1.7-2.3"/>

            </g>

          </g>

        </g>

        <g id="egg" transform="translate(101)">

          <g id="Layer_1">

            <g id="Group">

              <path id="Shape" fill="#E2D1E0" d="M16.2 37.5c-.6.1-1.3.1-2 .1C6.6 37.6.5 33.7.5 23.5S6.6.7 14.2.7c6.9 0 12.7 10.5 13.6 20.1L24.2 31l-8 6.5z"/>

              <path id="Shape" fill="#E0E1E0" d="M27.8 21c.1.9.1 1.8.1 2.7 0 9.3-5.1 13.3-11.7 14 0 0 4.1-4 6.5-7.4 2.4-3.5 5.1-9.3 5.1-9.3z"/>

              <circle id="Oval" cx="10.6" cy="14.5" r="1.3" fill="#A09F9F"/>

              <circle id="Oval" cx="17.8" cy="14.5" r="1.3" fill="#A09F9F"/>

              <path id="Shape" stroke="#A09F9F" d="M12.5 18.4s-.4 2.3 1.7 2.3 1.7-2.3 1.7-2.3"/>

            </g>

          </g>

        </g>

        <g id="egg" transform="translate(153)">

          <g id="Layer_1">

            <g id="Group">

              <path id="Shape" fill="#E2D1E0" d="M16.2 37.5c-.6.1-1.3.1-2 .1C6.6 37.6.5 33.7.5 23.5S6.6.7 14.2.7c6.9 0 12.7 10.5 13.6 20.1L24.2 31l-8 6.5z"/>

              <path id="Shape" fill="#E0E1E0" d="M27.8 21c.1.9.1 1.8.1 2.7 0 9.3-5.1 13.3-11.7 14 0 0 4.1-4 6.5-7.4 2.4-3.5 5.1-9.3 5.1-9.3z"/>

              <circle id="Oval" cx="10.6" cy="14.5" r="1.3" fill="#A09F9F"/>

              <circle id="Oval" cx="17.8" cy="14.5" r="1.3" fill="#A09F9F"/>

              <path id="Shape" stroke="#A09F9F" d="M12.5 18.4s-.4 2.3 1.7 2.3 1.7-2.3 1.7-2.3"/>

            </g>

          </g>

        </g>

        <g id="egg" transform="translate(203)">

          <g id="Layer_1">

            <g id="Group">

              <path id="Shape" fill="#E2D1E0" d="M16.2 37.5c-.6.1-1.3.1-2 .1C6.6 37.6.5 33.7.5 23.5S6.6.7 14.2.7c6.9 0 12.7 10.5 13.6 20.1L24.2 31l-8 6.5z"/>

              <path id="Shape" fill="#E0E1E0" d="M27.8 21c.1.9.1 1.8.1 2.7 0 9.3-5.1 13.3-11.7 14 0 0 4.1-4 6.5-7.4 2.4-3.5 5.1-9.3 5.1-9.3z"/>

              <circle id="Oval" cx="10.6" cy="14.5" r="1.3" fill="#A09F9F"/>

              <circle id="Oval" cx="17.8" cy="14.5" r="1.3" fill="#A09F9F"/>

              <path id="Shape" stroke="#A09F9F" d="M12.5 18.4s-.4 2.3 1.7 2.3 1.7-2.3 1.7-2.3"/>

            </g>

          </g>

        </g>

        <path id="Line" stroke="#979797" d="M.38 41.5h34.24m15.76 0h34.24m15.76 0h34.24m15.76 0h34.24m15.76 0h34.24"/>

      </g>

    </g>

    <g id="@@../shared/default_elements/default_buttons/std_btn.svg" transform="translate(296 24)">

      <g id="path-1-Clipped">

        <mask id="mask-8" fill="white">

          <use xlink:href="#path-7"/>

        </mask>

        <rect id="path-1" width="176" height="36" stroke="#996189" stroke-width="4" mask="url(#mask-8)" rx="4"/>

      </g>

      <g id="Standard-Button-Clipped">

        <mask id="mask-10" fill="white">

          <use xlink:href="#path-9"/>

        </mask>

        <text id="Standard-Button" fill="#996189" mask="url(#mask-10)" font-family="NotoSans-Bold, Noto Sans" font-size="16" font-weight="bold">

          <tspan x="22.074" y="24">Standard Button</tspan>

        </text>

      </g>

    </g>

  </g>

</svg>
