<?xml version="1.0" encoding="UTF-8" standalone="no"?>
<svg xmlns="http://www.w3.org/2000/svg" width="1440" height="1024" viewBox="0 0 1440 1024" xmlns:xlink="http://www.w3.org/1999/xlink">
  <title>
    learn_page
  </title>
  <defs>
    <rect id="path-1" width="831" height="253" rx="8"/>
    <rect id="path-3" width="174" height="42" rx="4"/>
    <rect id="path-5" width="549" height="253"/>
  </defs>
  <g id="Page-1" fill="none" fill-rule="evenodd">
    <g id="learn_page">
      <g id="learn_page_1">
        <rect id="Rectangle-2" width="1440" height="1024" fill="#F9F9F9"/>
        <g id="Desktop-Landscape">
          <g id="@@../shared/side_nav/sidenav_desktop_explore_active.svg">
            <g id="sidenav_desktop_explore_active">
              <g id="side_nav">
                <g id="Desktop-Landscape">
                  <g id="sidenav_desktop_explore_active">
                    <rect id="Rectangle" width="100" height="850" fill="#FFFFFF"/>
                    <rect id="Rectangle-2" width="100" height="168" y="160" fill="#996192"/>
                    <text id="Search" fill="#996192" font-family="NotoSans, Noto Sans" font-size="14">
                      <tspan x="26" y="429">Search</tspan>
                    </text>
                    <path id="Shape" fill="#996192" d="M56.7938822,395.578616 L55.1005089,395.578616 L54.5003259,394.999868 C56.6009663,392.556266 57.8656375,389.383871 57.8656375,385.932819 C57.8656375,378.237616 51.6280217,372 43.9328188,372 C36.2376158,372 30,378.237616 30,385.932819 C30,393.628022 36.2376158,399.865638 43.9328188,399.865638 C47.3838708,399.865638 50.5562664,398.600966 52.9998685,396.500326 L53.5786164,397.100509 L53.5786164,398.793882 L64.2961692,409.49 L67.49,406.296169 L56.7938822,395.578616 L56.7938822,395.578616 L56.7938822,395.578616 L56.7938822,395.578616 Z M43.9328188,395.578616 C38.5954774,395.578616 34.2870212,391.27016 34.2870212,385.932819 C34.2870212,380.595477 38.5954774,376.287021 43.9328188,376.287021 C49.2701601,376.287021 53.5786164,380.595477 53.5786164,385.932819 C53.5786164,391.27016 49.2701601,395.578616 43.9328188,395.578616 L43.9328188,395.578616 L43.9328188,395.578616 L43.9328188,395.578616 Z"/>
                    <text id="Explore" fill="#FFFFFF" font-family="NotoSans, Noto Sans" font-size="14">
                      <tspan x="25" y="272">Explore</tspan>
                    </text>
                    <path id="Shape" fill="#FFFFFF" d="M50,230.8 C48.78,230.8 47.8,231.78 47.8,233 C47.8,234.22 48.78,235.2 50,235.2 C51.22,235.2 52.2,234.22 52.2,233 C52.2,231.78 51.22,230.8 50,230.8 L50,230.8 L50,230.8 L50,230.8 Z M50,213 C38.96,213 30,221.96 30,233 C30,244.04 38.96,253 50,253 C61.04,253 70,244.04 70,233 C70,221.96 61.04,213 50,213 L50,213 L50,213 L50,213 Z M54.38,237.38 L38,245 L45.62,228.62 L62,221 L54.38,237.38 L54.38,237.38 L54.38,237.38 L54.38,237.38 Z"/>
                    <text id="Learn" fill="#996192" font-family="NotoSans, Noto Sans" font-size="14">
                      <tspan x="31" y="109">Learn</tspan>
                    </text>
                    <polygon id="Shape" fill="#996192" points="46 90 46 78 54 78 54 90 64 90 64 74 70 74 50 56 30 74 36 74 36 90"/>
                  </g>
                </g>
              </g>
            </g>
          </g>
        </g>
      </g>
      <g id="@@../shared/exercise/exercise_components.svg" transform="translate(131 31)">
        <g id="exercise_components">
          <g id="Page-1">
            <g id="exercise">
              <g id="exercise_components">
                <rect id="Rectangle" width="1156" height="742" fill="#FFFFFF"/>
                <g id="US-History" fill="#3A3A3A" font-size="20" font-family="NotoSans-Bold, Noto Sans" font-weight="bold">
                  <g id="Group">
                    <text id="US-History">
                      <tspan x="0" y="21">US History</tspan>
                    </text>
                  </g>
                </g>
                <g id="The-Declaration-of-I" fill="#3A3A3A" font-size="14" font-family="NotoSans, Noto Sans">
                  <text id="The-Declaration-of-Independence">
                    <tspan x="0" y="15">The Declaration of Independence</tspan>
                  </text>
                </g>
                <g id="Rectangle-2-Clipped">
                  <mask id="mask-2" fill="white">
                    <use xlink:href="#path-1"/>
                  </mask>
                  <g id="Rectangle-2" stroke="#E2D1E0" stroke-width="2" mask="url(#mask-2)">
                    <rect id="path-1" width="831" height="253" rx="8"/>
                  </g>
                </g>
                <g id="“We-hold-these-truth" fill="#3A3A3A" font-size="18">
                  <text id="“We-hold-these-truths-to-be" font-family="NotoSans, Noto Sans">
                    <tspan x="0" y="19">“We hold these truths to be</tspan>
                  </text>
                  <text id="self-evident" transform="translate(235)" font-family="NotoSans-Italic, Noto Sans" font-style="italic">
                    <tspan x=".6" y="19">self-evident</tspan>
                  </text>
                  <text id=".”" transform="translate(326)" font-family="NotoSans, Noto Sans">
                    <tspan x=".188" y="19">.”</tspan>
                  </text>
                  <text id="The-term" transform="translate(0 24)" font-family="NotoSans, Noto Sans">
                    <tspan x="0" y="19">The term</tspan>
                  </text>
                  <text id="self-evident" transform="translate(81 24)" font-family="NotoSans-Italic, Noto Sans" font-style="italic">
                    <tspan x=".554" y="19">self-evident</tspan>
                  </text>
                  <text id="means..." transform="translate(176 24)" font-family="NotoSans, Noto Sans">
                    <tspan x=".818" y="19">means...</tspan>
                  </text>
                </g>
                <rect id="Rectangle-13" width="25.533" height="22.198" x="234" y="224" fill="#D8D8D8" rx="8"/>
                <rect id="Rectangle-13" width="25.533" height="22.198" x="234" y="269" fill="#D8D8D8" rx="8"/>
                <rect id="Rectangle-13" width="25.533" height="22.198" x="234" y="315" fill="#D8D8D8" rx="8"/>
                <g id="shows-the-influence" fill="#3A3A3A" font-size="14" font-family="NotoSans, Noto Sans">
                  <text id="shows-the-influence-of-philosophers-such-as-David-Hume.">
                    <tspan x="0" y="15">shows the influence of philosophers such as David Hume.</tspan>
                  </text>
                </g>
                <g id="was-colonists’-way-o" fill="#3A3A3A" font-size="14" font-family="NotoSans, Noto Sans">
                  <text id="was-colonists’-way-of-mocking-the-British-by-stating-the-obvious-nature-of-their-beliefs.">
                    <tspan x="0" y="15">was colonists’ way of mocking the British by stating the obvious nature of their beliefs.</tspan>
                  </text>
                </g>
                <g id="shows-the-influence" fill="#3A3A3A" font-size="14" font-family="NotoSans, Noto Sans">
                  <text id="shows-the-influence-of-the-Scientific-Revolution-on-the-authors-of-the-Declaration.">
                    <tspan x="0" y="15">shows the influence of the Scientific Revolution on the authors of the Declaration.</tspan>
                  </text>
                </g>
                <g id="Select-all-that-appl" fill="#3A3A3A" font-size="14" font-family="NotoSans-Bold, Noto Sans" font-weight="bold">
                  <text id="Select-all-that-apply.">
                    <tspan x="0" y="15">Select all that apply.</tspan>
                  </text>
                </g>
                <g id="Group-3">
                  <g id="Rectangle-Clipped">
                    <mask id="mask-4" fill="white">
                      <use xlink:href="#path-3"/>
                    </mask>
                    <g id="Rectangle" fill="#996189" stroke="#979797" stroke-width="2" mask="url(#mask-4)">
                      <rect id="path-3" width="174" height="42" rx="4"/>
                    </g>
                  </g>
                  <g id="Check-Answer" fill="#FFFFFF" font-size="14.4" font-family="NotoSans-Bold, Noto Sans" font-weight="bold">
                    <g id="Group">
                      <text id="Check-Answer">
                        <tspan x=".389" y="15">Check Answer</tspan>
                      </text>
                    </g>
                  </g>
                </g>
                <g id="Scratchpad" fill="#3A3A3A" font-size="14" font-family="NotoSans-Bold, Noto Sans" font-weight="bold">
                  <g id="Group">
                    <text id="Scratchpad">
                      <tspan x="0" y="15">Scratchpad</tspan>
                    </text>
                  </g>
                </g>
                <g id="Rectangle-3-Clipped">
                  <mask id="mask-6" fill="white">
                    <use xlink:href="#path-5"/>
                  </mask>
                  <g id="Rectangle-3" stroke="#979797" stroke-width="2" mask="url(#mask-6)">
                    <rect id="path-5" width="549" height="253"/>
                  </g>
                </g>
                <g id="Egg-Points">
                  <g id="egg">
                    <g id="Layer_1">
                      <g id="Group">
                        <path id="Shape" fill="#E2D1E0" d="M16.2,37.5 C15.6,37.6 14.9,37.6 14.2,37.6 C6.6,37.6 0.5,33.7 0.5,23.5 C0.5,13.3 6.6,0.7 14.2,0.7 C21.1,0.7 26.9,11.2 27.8,20.8 L24.2,31 L16.2,37.5 L16.2,37.5 L16.2,37.5 L16.2,37.5 Z"/>
                        <path id="Shape" fill="#E0E1E0" d="M27.8,21 C27.9,21.9 27.9,22.8 27.9,23.7 C27.9,33 22.8,37 16.2,37.7 C16.2,37.7 20.3,33.7 22.7,30.3 C25.1,26.8 27.8,21 27.8,21 L27.8,21 L27.8,21 L27.8,21 Z"/>
                        <circle id="Oval" cx="10.6" cy="14.5" r="1.3" fill="#A09F9F"/>
                        <circle id="Oval" cx="17.8" cy="14.5" r="1.3" fill="#A09F9F"/>
                        <path id="Shape" stroke="#A09F9F" d="M12.5,18.4 C12.5,18.4 12.1,20.7 14.2,20.7 C16.3,20.7 15.9,18.4 15.9,18.4"/>
                      </g>
                    </g>
                  </g>
                  <g id="egg">
                    <g id="Layer_1">
                      <g id="Group">
                        <path id="Shape" fill="#E2D1E0" d="M16.2,37.5 C15.6,37.6 14.9,37.6 14.2,37.6 C6.6,37.6 0.5,33.7 0.5,23.5 C0.5,13.3 6.6,0.7 14.2,0.7 C21.1,0.7 26.9,11.2 27.8,20.8 L24.2,31 L16.2,37.5 L16.2,37.5 L16.2,37.5 L16.2,37.5 Z"/>
                        <path id="Shape" fill="#E0E1E0" d="M27.8,21 C27.9,21.9 27.9,22.8 27.9,23.7 C27.9,33 22.8,37 16.2,37.7 C16.2,37.7 20.3,33.7 22.7,30.3 C25.1,26.8 27.8,21 27.8,21 L27.8,21 L27.8,21 L27.8,21 Z"/>
                        <circle id="Oval" cx="10.6" cy="14.5" r="1.3" fill="#A09F9F"/>
                        <circle id="Oval" cx="17.8" cy="14.5" r="1.3" fill="#A09F9F"/>
                        <path id="Shape" stroke="#A09F9F" d="M12.5,18.4 C12.5,18.4 12.1,20.7 14.2,20.7 C16.3,20.7 15.9,18.4 15.9,18.4"/>
                      </g>
                    </g>
                  </g>
                  <g id="egg">
                    <g id="Layer_1">
                      <g id="Group">
                        <path id="Shape" fill="#E2D1E0" d="M16.2,37.5 C15.6,37.6 14.9,37.6 14.2,37.6 C6.6,37.6 0.5,33.7 0.5,23.5 C0.5,13.3 6.6,0.7 14.2,0.7 C21.1,0.7 26.9,11.2 27.8,20.8 L24.2,31 L16.2,37.5 L16.2,37.5 L16.2,37.5 L16.2,37.5 Z"/>
                        <path id="Shape" fill="#E0E1E0" d="M27.8,21 C27.9,21.9 27.9,22.8 27.9,23.7 C27.9,33 22.8,37 16.2,37.7 C16.2,37.7 20.3,33.7 22.7,30.3 C25.1,26.8 27.8,21 27.8,21 L27.8,21 L27.8,21 L27.8,21 Z"/>
                        <circle id="Oval" cx="10.6" cy="14.5" r="1.3" fill="#A09F9F"/>
                        <circle id="Oval" cx="17.8" cy="14.5" r="1.3" fill="#A09F9F"/>
                        <path id="Shape" stroke="#A09F9F" d="M12.5,18.4 C12.5,18.4 12.1,20.7 14.2,20.7 C16.3,20.7 15.9,18.4 15.9,18.4"/>
                      </g>
                    </g>
                  </g>
                  <g id="egg">
                    <g id="Layer_1">
                      <g id="Group">
                        <path id="Shape" fill="#E2D1E0" d="M16.2,37.5 C15.6,37.6 14.9,37.6 14.2,37.6 C6.6,37.6 0.5,33.7 0.5,23.5 C0.5,13.3 6.6,0.7 14.2,0.7 C21.1,0.7 26.9,11.2 27.8,20.8 L24.2,31 L16.2,37.5 L16.2,37.5 L16.2,37.5 L16.2,37.5 Z"/>
                        <path id="Shape" fill="#E0E1E0" d="M27.8,21 C27.9,21.9 27.9,22.8 27.9,23.7 C27.9,33 22.8,37 16.2,37.7 C16.2,37.7 20.3,33.7 22.7,30.3 C25.1,26.8 27.8,21 27.8,21 L27.8,21 L27.8,21 L27.8,21 Z"/>
                        <circle id="Oval" cx="10.6" cy="14.5" r="1.3" fill="#A09F9F"/>
                        <circle id="Oval" cx="17.8" cy="14.5" r="1.3" fill="#A09F9F"/>
                        <path id="Shape" stroke="#A09F9F" d="M12.5,18.4 C12.5,18.4 12.1,20.7 14.2,20.7 C16.3,20.7 15.9,18.4 15.9,18.4"/>
                      </g>
                    </g>
                  </g>
                  <g id="egg">
                    <g id="Layer_1">
                      <g id="Group">
                        <path id="Shape" fill="#E2D1E0" d="M16.2,37.5 C15.6,37.6 14.9,37.6 14.2,37.6 C6.6,37.6 0.5,33.7 0.5,23.5 C0.5,13.3 6.6,0.7 14.2,0.7 C21.1,0.7 26.9,11.2 27.8,20.8 L24.2,31 L16.2,37.5 L16.2,37.5 L16.2,37.5 L16.2,37.5 Z"/>
                        <path id="Shape" fill="#E0E1E0" d="M27.8,21 C27.9,21.9 27.9,22.8 27.9,23.7 C27.9,33 22.8,37 16.2,37.7 C16.2,37.7 20.3,33.7 22.7,30.3 C25.1,26.8 27.8,21 27.8,21 L27.8,21 L27.8,21 L27.8,21 Z"/>
                        <circle id="Oval" cx="10.6" cy="14.5" r="1.3" fill="#A09F9F"/>
                        <circle id="Oval" cx="17.8" cy="14.5" r="1.3" fill="#A09F9F"/>
                        <path id="Shape" stroke="#A09F9F" d="M12.5,18.4 C12.5,18.4 12.1,20.7 14.2,20.7 C16.3,20.7 15.9,18.4 15.9,18.4"/>
                      </g>
                    </g>
                  </g>
                  <path id="Line" stroke="#979797" d="M.380434783 41.5L34.6195652 41.5M50.3804348 41.5L84.6195652 41.5M100.380435 41.5L134.619565 41.5M150.380435 41.5L184.619565 41.5M200.380435 41.5L234.619565 41.5"/>
                </g>
              </g>
            </g>
          </g>
        </g>
      </g>
      <g id="@@../shared/default_elements/default_buttons/flat_btn.svg" fill="#996189" transform="translate(152 808)" font-size="16" font-family="NotoSans-Bold, Noto Sans" font-weight="bold">
        <g id="LinkedSVG" transform="translate(-2 -4)">
          <g id="flat_btn">
            <g id="Buttons">
              <g id="background">
                <g id="flat_btn">
                  <text id="Flat-ButtonBBBB">
                    <tspan x=".996" y="17">Flat ButtonBBBB</tspan>
                  </text>
                </g>
              </g>
            </g>
          </g>
        </g>
      </g>
    </g>
  </g>
</svg>
