<?xml version="1.0" encoding="UTF-8" standalone="no"?>
<svg width="497px" height="850px" viewBox="0 0 497 850" version="1.1" xmlns="http://www.w3.org/2000/svg" xmlns:xlink="http://www.w3.org/1999/xlink">
    <!-- Generator: Sketch 39.1 (31720) - http://www.bohemiancoding.com/sketch -->
    <title>learn_page</title>
    <desc>Created with Sketch.</desc>
    <defs>
        <rect id="path-1" x="0" y="0" width="176" height="36" rx="4"></rect>
    </defs>
    <g id="Page-1" stroke="none" stroke-width="1" fill="none" fill-rule="evenodd">
        <g id="learn_page">
            <g id="learn_page_1">
                <g id="Desktop-Landscape">
                    <g id="@@../shared/default_elements/default_buttons/std_btn.svg">
                        <g id="std_btn">
                            <g id="Buttons">
                                <g id="background" transform="translate(425.000000, 229.000000)">
                                    <g id="std_btn">
                                        <g id="Rectangle-1-Clipped">
                                            <mask id="mask-2" fill="white">
                                                <use xlink:href="#path-1"></use>
                                            </mask>
                                            <g id="path-1"></g>
                                            <g id="Rectangle-1" mask="url(#mask-2)" stroke="#996189" stroke-width="4">
                                                <rect id="path-1" x="0" y="0" width="176" height="36" rx="4"></rect>
                                            </g>
                                        </g>
                                        <g id="Standard-Button" transform="translate(22.000000, 7.000000)" font-size="16" font-family="NotoSans-Bold, Noto Sans" fill="#996189" font-weight="bold">
                                            <text>
                                                <tspan x="0.0742188" y="17">Standard Button</tspan>
                                            </text>
                                        </g>
                                    </g>
                                </g>
                            </g>
                        </g>
                    </g>
                    <g id="@@../shared/side_nav/sidenav_desktop_explore_active.svg">
                        <g id="sidenav_desktop_explore_active">
                            <g id="side_nav">
                                <g id="Desktop-Landscape">
                                    <g id="sidenav_desktop_explore_active">
                                        <rect id="Rectangle" fill="#FFFFFF" x="0" y="0" width="100" height="850"></rect>
                                        <rect id="Rectangle-2" fill="#996192" x="0" y="160" width="100" height="168"></rect>
                                        <text id="Search" fill="#996192" font-family="NotoSans, Noto Sans" font-size="14" font-weight="normal">
                                            <tspan x="26" y="429">Search</tspan>
                                        </text>
                                        <path d="M56.7938822,395.578616 L55.1005089,395.578616 L54.5003259,394.999868 C56.6009663,392.556266 57.8656375,389.383871 57.8656375,385.932819 C57.8656375,378.237616 51.6280217,372 43.9328188,372 C36.2376158,372 30,378.237616 30,385.932819 C30,393.628022 36.2376158,399.865638 43.9328188,399.865638 C47.3838708,399.865638 50.5562664,398.600966 52.9998685,396.500326 L53.5786164,397.100509 L53.5786164,398.793882 L64.2961692,409.49 L67.49,406.296169 L56.7938822,395.578616 L56.7938822,395.578616 L56.7938822,395.578616 Z M43.9328188,395.578616 C38.5954774,395.578616 34.2870212,391.27016 34.2870212,385.932819 C34.2870212,380.595477 38.5954774,376.287021 43.9328188,376.287021 C49.2701601,376.287021 53.5786164,380.595477 53.5786164,385.932819 C53.5786164,391.27016 49.2701601,395.578616 43.9328188,395.578616 L43.9328188,395.578616 L43.9328188,395.578616 Z" id="Shape" fill="#996192"></path>
                                        <text id="Explore" fill="#FFFFFF" font-family="NotoSans, Noto Sans" font-size="14" font-weight="normal">
                                            <tspan x="25" y="272">Explore</tspan>
                                        </text>
                                        <path d="M50,230.8 C48.78,230.8 47.8,231.78 47.8,233 C47.8,234.22 48.78,235.2 50,235.2 C51.22,235.2 52.2,234.22 52.2,233 C52.2,231.78 51.22,230.8 50,230.8 L50,230.8 L50,230.8 Z M50,213 C38.96,213 30,221.96 30,233 C30,244.04 38.96,253 50,253 C61.04,253 70,244.04 70,233 C70,221.96 61.04,213 50,213 L50,213 L50,213 Z M54.38,237.38 L38,245 L45.62,228.62 L62,221 L54.38,237.38 L54.38,237.38 L54.38,237.38 Z" id="Shape" fill="#FFFFFF"></path>
                                        <text id="Learn" fill="#996192" font-family="NotoSans, Noto Sans" font-size="14" font-weight="normal">
                                            <tspan x="31" y="109">Learn</tspan>
                                        </text>
                                        <polygon id="Shape" fill="#996192" points="46 90 46 78 54 78 54 90 64 90 64 74 70 74 50 56 30 74 36 74 36 90"></polygon>
                                    </g>
                                </g>
                            </g>
                        </g>
                    </g>
                </g>
            </g>
        </g>
    </g>
</svg>