<svg xmlns="http://www.w3.org/2000/svg" width="100" height="850" viewBox="0 0 100 850">
  <g id="sidenav_desktop_explore_active" fill="none" fill-rule="evenodd">
    <rect id="Rectangle" width="100" height="850" fill="#FFFFFF"/>
    <rect id="Rectangle-2" width="100" height="168" y="160" fill="#996192"/>
    <text id="Search" fill="#996192" font-family="NotoSans, Noto Sans" font-size="14">
      <tspan x="26" y="429">Search</tspan>
    </text>
    <path id="Shape" fill="#996192" d="M56.794 395.579H55.1l-.6-.58a13.871 13.871 0 0 0 3.365-9.066c0-7.695-6.238-13.933-13.933-13.933C36.238 372 30 378.238 30 385.933c0 7.695 6.238 13.933 13.933 13.933 3.45 0 6.623-1.265 9.067-3.366l.579.6v1.694l10.717 10.696 3.194-3.194-10.696-10.717zm-12.861 0a9.633 9.633 0 0 1-9.646-9.646 9.633 9.633 0 0 1 9.646-9.646 9.633 9.633 0 0 1 9.646 9.646 9.633 9.633 0 0 1-9.646 9.646z"/>
    <text id="Explore" fill="#FFFFFF" font-family="NotoSans, Noto Sans" font-size="14">
      <tspan x="25" y="272">Explore</tspan>
    </text>
    <path id="Shape" fill="#FFFFFF" d="M50 230.8c-1.22 0-2.2.98-2.2 2.2 0 1.22.98 2.2 2.2 2.2 1.22 0 2.2-.98 2.2-2.2 0-1.22-.98-2.2-2.2-2.2zm0-17.8c-11.04 0-20 8.96-20 20s8.96 20 20 20 20-8.96 20-20-8.96-20-20-20zm4.38 24.38L38 245l7.62-16.38L62 221l-7.62 16.38z"/>
    <text id="Learn" fill="#996192" font-family="NotoSans, Noto Sans" font-size="14">
      <tspan x="31" y="109">Learn</tspan>
    </text>
    <polygon id="Shape" fill="#996192" points="46 90 46 78 54 78 54 90 64 90 64 74 70 74 50 56 30 74 36 74 36 90"/>
  </g>
</svg>
