<?xml version="1.0" encoding="UTF-8" standalone="no"?>
<svg width="100px" height="850px" viewBox="0 0 100 850" version="1.1" xmlns="http://www.w3.org/2000/svg" xmlns:xlink="http://www.w3.org/1999/xlink">
    <!-- Generator: Sketch 39.1 (31720) - http://www.bohemiancoding.com/sketch -->
    <title>sidenav_desktop_explore_active</title>
    <desc>Created with Sketch.</desc>
    <defs></defs>
    <g id="side_nav" stroke="none" stroke-width="1" fill="none" fill-rule="evenodd">
        <g id="Desktop-Landscape">
            <g id="sidenav_desktop_explore_active">
                <rect id="Rectangle" fill="#FFFFFF" x="0" y="0" width="100" height="850"></rect>
                <rect id="Rectangle-2" fill="#996192" x="0" y="160" width="100" height="168"></rect>
                <path d="M50,230.8 C48.78,230.8 47.8,231.78 47.8,233 C47.8,234.22 48.78,235.2 50,235.2 C51.22,235.2 52.2,234.22 52.2,233 C52.2,231.78 51.22,230.8 50,230.8 L50,230.8 Z M50,213 C38.96,213 30,221.96 30,233 C30,244.04 38.96,253 50,253 C61.04,253 70,244.04 70,233 C70,221.96 61.04,213 50,213 L50,213 Z M54.38,237.38 L38,245 L45.62,228.62 L62,221 L54.38,237.38 L54.38,237.38 Z" id="Shape" fill="#FFFFFF"></path>
                <text id="Explore" font-family="NotoSans, Noto Sans" font-size="14" font-weight="normal" fill="#FFFFFF">
                    <tspan x="25" y="272">Explore</tspan>
                </text>
                <text id="Home" font-family="NotoSans, Noto Sans" font-size="14" font-weight="normal" fill="#996192">
                    <tspan x="31" y="109">Learn</tspan>
                </text>
                <polygon id="Shape" fill="#996192" points="46 90 46 78 54 78 54 90 64 90 64 74 70 74 50 56 30 74 36 74 36 90"></polygon>
            </g>
        </g>
    </g>
</svg>