<?xml version="1.0" encoding="UTF-8" standalone="no"?>
<svg xmlns="http://www.w3.org/2000/svg" width="100" height="850" viewBox="0 0 100 850">
  <title>
    sidenav_desktop_explore_active
  </title>
  <g fill="none" fill-rule="evenodd">
    <rect width="100" height="850" fill="#FFFFFF"/>
    <rect width="100" height="168" y="160" fill="#996192"/>
    <path fill="#FFFFFF" d="M50,230.8 C48.78,230.8 47.8,231.78 47.8,233 C47.8,234.22 48.78,235.2 50,235.2 C51.22,235.2 52.2,234.22 52.2,233 C52.2,231.78 51.22,230.8 50,230.8 L50,230.8 Z M50,213 C38.96,213 30,221.96 30,233 C30,244.04 38.96,253 50,253 C61.04,253 70,244.04 70,233 C70,221.96 61.04,213 50,213 L50,213 Z M54.38,237.38 L38,245 L45.62,228.62 L62,221 L54.38,237.38 L54.38,237.38 Z"/>
    <text fill="#FFFFFF" font-family="NotoSans, Noto Sans" font-size="14">
      <tspan x="25" y="272">Explore</tspan>
    </text>
    <text fill="#996192" font-family="NotoSans, Noto Sans" font-size="14">
      <tspan x="31" y="109">Learn</tspan>
    </text>
    <polygon fill="#996192" points="46 90 46 78 54 78 54 90 64 90 64 74 70 74 50 56 30 74 36 74 36 90"/>
  </g>
</svg>
