<svg xmlns="http://www.w3.org/2000/svg" width="666" height="36" viewBox="0 0 666 36">
  <g id="Symbols" fill="none" fill-rule="evenodd">
    <rect id="Rectangle-8" width="442" height="36" fill="#FFFFFF" rx="4"/>
    <path id="Shape" fill="#996189" d="M.667 11.333h4.666V6.667H.667v4.666zm0 5.834h4.666V12.5H.667v4.667zm0-11.667h4.666V.833H.667V5.5zM6.5 11.333h14V6.667h-14v4.666zm0 5.834h14V12.5h-14v4.667zM6.5.833V5.5h14V.833h-14zM60 8.75h6.25v-7.5H60v7.5zm0 8.75h6.25V10H60v7.5zm7.5 0h6.25V10H67.5v7.5zm7.5 0h6.25V10H75v7.5zm-7.5-8.75h6.25v-7.5H67.5v7.5zm7.5-7.5v7.5h6.25v-7.5H75zm345.153 19.844h-1.084l-.385-.37a8.88 8.88 0 0 0 2.155-5.805A8.92 8.92 0 0 0 411.919 6 8.92 8.92 0 0 0 403 14.92a8.92 8.92 0 0 0 8.92 8.919c2.209 0 4.24-.81 5.804-2.155l.37.385v1.084L424.955 30 427 27.955l-6.847-6.86zm-8.234 0a6.167 6.167 0 0 1-6.175-6.175 6.167 6.167 0 0 1 6.175-6.175 6.167 6.167 0 0 1 6.175 6.175 6.167 6.167 0 0 1-6.175 6.175z"/>
    <rect id="Rectangle-5" width="80" height="20" x="586" y="8" fill="#996189" rx="10"/>
    <text id="6793" fill="#FFFFFF" font-family="NotoSans, Noto Sans" font-size="18">
      <tspan x="615" y="24">6793</tspan>
    </text>
    <polygon id="Shape" fill="#FFFFFF" points="602 22.055 606.944 25 605.632 19.45 610 15.716 604.248 15.234 602 10 599.752 15.234 594 15.716 598.368 19.45 597.056 25"/>
  </g>
</svg>
