<svg xmlns="http://www.w3.org/2000/svg" width="1156" height="742" viewBox="0 0 1156 742" xmlns:xlink="http://www.w3.org/1999/xlink">
  <defs>
    <rect id="path-1" width="831" height="253" rx="8"/>
    <rect id="path-3" width="174" height="42" rx="4"/>
    <rect id="path-5" width="549" height="253"/>
  </defs>
  <g id="exercise_components" fill="none" fill-rule="evenodd">
    <rect id="Rectangle" width="1156" height="742" fill="#FFFFFF"/>
    <text id="Points:" fill="#3A3A3A" font-family="NotoSans-Bold, Noto Sans" font-size="14" font-weight="bold">
      <tspan x="736" y="514">Points:</tspan>
    </text>
    <text id="US-History" fill="#3A3A3A" font-family="NotoSans-Bold, Noto Sans" font-size="20" font-weight="bold">
      <tspan x="543" y="47">US History</tspan>
    </text>
    <text id="The-Declaration-of-Independence" fill="#3A3A3A" font-family="NotoSans, Noto Sans" font-size="14">
      <tspan x="498" y="71">The Declaration of Independence</tspan>
    </text>
    <g id="Rectangle-2-Clipped" transform="translate(141 103)">
      <mask id="mask-2" fill="white">
        <use xlink:href="#path-1"/>
      </mask>
      <g id="Rectangle-2" stroke="#E2D1E0" stroke-width="2" mask="url(#mask-2)">
        <rect id="path-1" width="831" height="253" rx="8"/>
      </g>
    </g>
    <text id="We-hold-these-truths-to-be" fill="#3A3A3A" font-family="NotoSans, Noto Sans" font-size="18">
      <tspan x="186" y="137">We hold these truths to be</tspan>
    </text>
    <text id="self-evident" fill="#3A3A3A" font-family="NotoSans-Italic, Noto Sans" font-size="18" font-style="italic">
      <tspan x="415.14" y="137">self-evident</tspan>
    </text>
    <text id="." fill="#3A3A3A" font-family="NotoSans, Noto Sans" font-size="18">
      <tspan x="505.729" y="137">.</tspan>
    </text>
    <text id="The-term" fill="#3A3A3A" font-family="NotoSans, Noto Sans" font-size="18">
      <tspan x="186" y="161">The term</tspan>
    </text>
    <text id="self-evident" fill="#3A3A3A" font-family="NotoSans-Italic, Noto Sans" font-size="18" font-style="italic">
      <tspan x="267.554" y="161">self-evident</tspan>
    </text>
    <text id="means..." fill="#3A3A3A" font-family="NotoSans, Noto Sans" font-size="18">
      <tspan x="362.818" y="161">means...</tspan>
    </text>
    <rect id="Rectangle-13" width="25.533" height="22.198" x="184" y="224" fill="#D8D8D8" rx="8"/>
    <rect id="Rectangle-13" width="25.533" height="22.198" x="184" y="269" fill="#D8D8D8" rx="8"/>
    <rect id="Rectangle-13" width="25.533" height="22.198" x="184" y="315" fill="#D8D8D8" rx="8"/>
    <text id="shows-the-influence-of-philosophers-such-as-David-Hume." fill="#3A3A3A" font-family="NotoSans, Noto Sans" font-size="14">
      <tspan x="222" y="239">shows the influence of philosophers such as David Hume.</tspan>
    </text>
    <text id="was-colonists-way-of-mocking-the-British-by-stating-the-obvious-nature-of-their-beliefs." fill="#3A3A3A" font-family="NotoSans, Noto Sans" font-size="14">
      <tspan x="222" y="285">was colonists way of mocking the British by stating the obvious nature of their beliefs.</tspan>
    </text>
    <text id="shows-the-influence-of-the-Scientific-Revolution-on-the-authors-of-the-Declaration." fill="#3A3A3A" font-family="NotoSans, Noto Sans" font-size="14">
      <tspan x="222" y="331">shows the influence of the Scientific Revolution on the authors of the Declaration.</tspan>
    </text>
    <text id="Select-all-that-apply." fill="#3A3A3A" font-family="NotoSans-Bold, Noto Sans" font-size="14" font-weight="bold">
      <tspan x="186" y="207">Select all that apply.</tspan>
    </text>
    <g id="Group-3" transform="translate(798 370)">
      <g id="Rectangle-Clipped">
        <mask id="mask-4" fill="white">
          <use xlink:href="#path-3"/>
        </mask>
        <g id="Rectangle" fill="#996189" stroke="#979797" stroke-width="2" mask="url(#mask-4)">
          <rect id="path-3" width="174" height="42" rx="4"/>
        </g>
      </g>
      <text id="Check-Answer" fill="#FFFFFF" transform="translate(37 11)" font-size="14.4" font-family="NotoSans-Bold, Noto Sans" font-weight="bold">
        <tspan x=".389" y="15">Check Answer</tspan>
      </text>
    </g>
    <text id="Scratchpad" fill="#3A3A3A" font-family="NotoSans-Bold, Noto Sans" font-size="14" font-weight="bold">
      <tspan x="140" y="435">Scratchpad</tspan>
    </text>
    <g id="Rectangle-3-Clipped" transform="translate(140 453)">
      <mask id="mask-6" fill="white">
        <use xlink:href="#path-5"/>
      </mask>
      <g id="Rectangle-3" stroke="#979797" stroke-width="2" mask="url(#mask-6)">
        <rect id="path-5" width="549" height="253"/>
      </g>
    </g>
    <g id="Egg-Points" transform="translate(730 542)">
      <g id="egg" transform="translate(3)">
        <g id="Layer_1">
          <g id="Group">
            <path id="Shape" fill="#E2D1E0" d="M16.2 37.5c-.6.1-1.3.1-2 .1C6.6 37.6.5 33.7.5 23.5S6.6.7 14.2.7c6.9 0 12.7 10.5 13.6 20.1L24.2 31l-8 6.5z"/>
            <path id="Shape" fill="#E0E1E0" d="M27.8 21c.1.9.1 1.8.1 2.7 0 9.3-5.1 13.3-11.7 14 0 0 4.1-4 6.5-7.4 2.4-3.5 5.1-9.3 5.1-9.3z"/>
            <circle id="Oval" cx="10.6" cy="14.5" r="1.3" fill="#A09F9F"/>
            <circle id="Oval" cx="17.8" cy="14.5" r="1.3" fill="#A09F9F"/>
            <path id="Shape" stroke="#A09F9F" d="M12.5 18.4s-.4 2.3 1.7 2.3 1.7-2.3 1.7-2.3"/>
          </g>
        </g>
      </g>
      <g id="egg" transform="translate(52)">
        <g id="Layer_1">
          <g id="Group">
            <path id="Shape" fill="#E2D1E0" d="M16.2 37.5c-.6.1-1.3.1-2 .1C6.6 37.6.5 33.7.5 23.5S6.6.7 14.2.7c6.9 0 12.7 10.5 13.6 20.1L24.2 31l-8 6.5z"/>
            <path id="Shape" fill="#E0E1E0" d="M27.8 21c.1.9.1 1.8.1 2.7 0 9.3-5.1 13.3-11.7 14 0 0 4.1-4 6.5-7.4 2.4-3.5 5.1-9.3 5.1-9.3z"/>
            <circle id="Oval" cx="10.6" cy="14.5" r="1.3" fill="#A09F9F"/>
            <circle id="Oval" cx="17.8" cy="14.5" r="1.3" fill="#A09F9F"/>
            <path id="Shape" stroke="#A09F9F" d="M12.5 18.4s-.4 2.3 1.7 2.3 1.7-2.3 1.7-2.3"/>
          </g>
        </g>
      </g>
      <g id="egg" transform="translate(101)">
        <g id="Layer_1">
          <g id="Group">
            <path id="Shape" fill="#E2D1E0" d="M16.2 37.5c-.6.1-1.3.1-2 .1C6.6 37.6.5 33.7.5 23.5S6.6.7 14.2.7c6.9 0 12.7 10.5 13.6 20.1L24.2 31l-8 6.5z"/>
            <path id="Shape" fill="#E0E1E0" d="M27.8 21c.1.9.1 1.8.1 2.7 0 9.3-5.1 13.3-11.7 14 0 0 4.1-4 6.5-7.4 2.4-3.5 5.1-9.3 5.1-9.3z"/>
            <circle id="Oval" cx="10.6" cy="14.5" r="1.3" fill="#A09F9F"/>
            <circle id="Oval" cx="17.8" cy="14.5" r="1.3" fill="#A09F9F"/>
            <path id="Shape" stroke="#A09F9F" d="M12.5 18.4s-.4 2.3 1.7 2.3 1.7-2.3 1.7-2.3"/>
          </g>
        </g>
      </g>
      <g id="egg" transform="translate(153)">
        <g id="Layer_1">
          <g id="Group">
            <path id="Shape" fill="#E2D1E0" d="M16.2 37.5c-.6.1-1.3.1-2 .1C6.6 37.6.5 33.7.5 23.5S6.6.7 14.2.7c6.9 0 12.7 10.5 13.6 20.1L24.2 31l-8 6.5z"/>
            <path id="Shape" fill="#E0E1E0" d="M27.8 21c.1.9.1 1.8.1 2.7 0 9.3-5.1 13.3-11.7 14 0 0 4.1-4 6.5-7.4 2.4-3.5 5.1-9.3 5.1-9.3z"/>
            <circle id="Oval" cx="10.6" cy="14.5" r="1.3" fill="#A09F9F"/>
            <circle id="Oval" cx="17.8" cy="14.5" r="1.3" fill="#A09F9F"/>
            <path id="Shape" stroke="#A09F9F" d="M12.5 18.4s-.4 2.3 1.7 2.3 1.7-2.3 1.7-2.3"/>
          </g>
        </g>
      </g>
      <g id="egg" transform="translate(203)">
        <g id="Layer_1">
          <g id="Group">
            <path id="Shape" fill="#E2D1E0" d="M16.2 37.5c-.6.1-1.3.1-2 .1C6.6 37.6.5 33.7.5 23.5S6.6.7 14.2.7c6.9 0 12.7 10.5 13.6 20.1L24.2 31l-8 6.5z"/>
            <path id="Shape" fill="#E0E1E0" d="M27.8 21c.1.9.1 1.8.1 2.7 0 9.3-5.1 13.3-11.7 14 0 0 4.1-4 6.5-7.4 2.4-3.5 5.1-9.3 5.1-9.3z"/>
            <circle id="Oval" cx="10.6" cy="14.5" r="1.3" fill="#A09F9F"/>
            <circle id="Oval" cx="17.8" cy="14.5" r="1.3" fill="#A09F9F"/>
            <path id="Shape" stroke="#A09F9F" d="M12.5 18.4s-.4 2.3 1.7 2.3 1.7-2.3 1.7-2.3"/>
          </g>
        </g>
      </g>
      <path id="Line" stroke="#979797" d="M.38 41.5h34.24m15.76 0h34.24m15.76 0h34.24m15.76 0h34.24m15.76 0h34.24"/>
    </g>
  </g>
</svg>
